<?xml version="1.0" encoding="UTF-8" standalone="no"?>
<!-- Created with Inkscape (http://www.inkscape.org/) -->

<svg
  width="150" height="50"
   viewBox="0 0 190 75"
   version="1.1"
   id="svg1"
   sodipodi:docname="logo-new.svg"
   inkscape:version="1.3.2 (091e20e, 2023-11-25, custom)"
   xmlns:inkscape="http://www.inkscape.org/namespaces/inkscape"
   xmlns:sodipodi="http://sodipodi.sourceforge.net/DTD/sodipodi-0.dtd"
   xmlns="http://www.w3.org/2000/svg"
   xmlns:svg="http://www.w3.org/2000/svg">
  <sodipodi:namedview
     id="namedview1"
     pagecolor="#505050"
     bordercolor="#eeeeee"
     borderopacity="1"
     inkscape:showpageshadow="0"
     inkscape:pageopacity="0"
     inkscape:pagecheckerboard="0"
     inkscape:deskcolor="#505050"
     inkscape:document-units="mm"
     inkscape:zoom="0.72426347"
     inkscape:cx="396.26464"
     inkscape:cy="340.34576"
     inkscape:window-width="1920"
     inkscape:window-height="1009"
     inkscape:window-x="1912"
     inkscape:window-y="-8"
     inkscape:window-maximized="1"
     inkscape:current-layer="layer1" />
  <defs
     id="defs1" />
  <g
     inkscape:label="Camada 1"
     inkscape:groupmode="layer"
     id="layer1">
    <circle
       style="fill:#facc15;fill-opacity:1;stroke:none;stroke-width:1.32211;stroke-dasharray:none;stroke-opacity:1"
       id="path24-0-8"
       cx="2.3903942"
       cy="42.253033"
       r="4.5505056"
       transform="rotate(-18.121291)" />
    <path
       style="font-size:40.7991px;font-family:Pattaya;-inkscape-font-specification:Pattaya;letter-spacing:-1.32px;fill:#1519fa;fill-opacity:1;stroke:none;stroke-width:0.758744;stroke-dasharray:none;stroke-opacity:1"
       d="m 28.745583,14.855781 11.44976,-1.511533 -5.47927,25.84705 q 3.665458,-0.264617 6.990801,-3.400913 3.023065,-2.834128 4.799108,-7.179747 1.738242,-4.156674 1.738242,-8.464524 0,-4.534568 -2.229496,-7.444259 -1.209219,-1.473732 -3.060832,-2.267267 -1.851614,-0.8313358 -4.307853,-0.8313358 -4.685701,0 -8.426729,1.2847888 -3.703227,1.28479 -6.310606,3.703228 -2.60738,2.418438 -3.967771,5.93272 -1.32259,3.514286 -1.32259,7.897707 0,2.418439 0.529056,3.854404 0.151207,0.491248 0.377883,0.869101 0.151207,0.264616 0.151207,0.529062 -4.194481,0 -6.121664,-1.662677 -2.153926,-1.813841 -2.153926,-5.857154 0,-2.531812 1.095881,-4.988042 1.095847,-2.494012 3.098599,-4.799078 1.889416,-2.191727 4.496795,-4.081109 2.645147,-1.927218 5.706012,-3.3253779 6.423944,-2.9096587 12.772351,-2.9096587 8.955786,0 13.906033,4.6479336 2.191695,2.078324 3.249773,4.799075 1.095848,2.720751 1.095848,5.781588 0,3.74102 -1.5493,7.444249 -1.511533,3.703228 -4.383423,6.612916 -3.023064,3.098631 -7.217545,4.912449 -4.156679,1.776038 -9.182496,1.776038 h -0.41565 L 29.350243,64.09367 H 18.240565 Z"
       id="text1"
       aria-label="P" />
    <path
       d="m 36.514423,46.140016 h 4.457381 l -0.392854,1.91894 q 1.057683,-0.936806 1.722513,-1.32966 1.027464,-0.58928 2.009599,-0.58928 0.997244,0 1.601635,0.710159 0.271976,0.317305 0.407964,0.740378 0.135987,0.407964 0.135987,0.876366 0,0.423074 -0.135987,0.815928 -0.135988,0.392854 -0.407964,0.710159 -0.302195,0.332415 -0.740379,0.528842 -0.423073,0.196427 -0.951915,0.196427 -0.407963,0 -0.64972,-0.135988 -0.241756,-0.135988 -0.377744,-0.392854 -0.120878,-0.256866 -0.166207,-0.498623 -0.135988,-0.649719 -0.271976,-0.861256 -0.105768,-0.151098 -0.332415,-0.151098 -0.64972,0 -1.103013,0.271976 -0.453293,0.271976 -1.148342,0.906586 l -2.478001,11.755397 h -4.457381 z m 13.050902,15.593277 q -2.296684,0 -3.550795,-1.118122 -1.405208,-1.239001 -1.405208,-3.762332 0,-0.951915 0.196427,-2.100257 0.196427,-1.163452 0.604391,-2.342014 0.936805,-2.810416 2.674428,-4.4876 2.100258,-2.054928 5.001333,-2.054928 3.973868,0 3.973868,4.940893 v 0.03022 q 0.09066,0.03022 0.151097,0.03022 h 0.181318 q 1.027464,0 2.432672,-0.574171 1.239001,-0.513732 2.342014,-1.28433 l 0.271975,0.846147 q -0.906586,0.951915 -2.342013,1.616745 -1.420318,0.664829 -3.142832,0.951915 -0.181317,2.100257 -0.815927,3.83788 -0.63461,1.722514 -1.631855,2.961514 -0.982134,1.208782 -2.251355,1.858502 -1.26922,0.649719 -2.689538,0.649719 z m 1.239001,-2.780196 q 0.543952,0 1.103013,-0.483513 0.574171,-0.498622 1.072793,-1.374989 0.498622,-0.876366 0.861257,-2.054928 0.362634,-1.178561 0.543951,-2.52333 -0.453293,-0.120879 -0.64972,-0.453293 -0.181317,-0.332415 -0.181317,-0.846147 0,-0.63461 0.256866,-1.057684 0.256866,-0.423073 0.710159,-0.6195 -0.06044,-0.982135 -0.317305,-1.405208 -0.135988,-0.211537 -0.347524,-0.302196 -0.196427,-0.09066 -0.513732,-0.09066 -1.042574,0 -2.039819,1.571415 -0.921695,1.420318 -1.510976,3.505466 -0.574171,2.039818 -0.574171,3.626344 0,0.770598 0.07555,1.25411 0.09066,0.483513 0.287086,0.755488 0.181317,0.271976 0.468403,0.392854 0.287085,0.105769 0.755488,0.105769 z m 4.257019,10.395518 q -1.707404,0 -2.765087,-0.936805 -0.513732,-0.453293 -0.785708,-1.103013 -0.287086,-0.63461 -0.287086,-1.420318 0,-0.997245 0.438184,-1.722513 0.438183,-0.725269 1.25411,-1.269221 0.67994,-0.438183 1.526086,-0.785707 0.846147,-0.332415 2.130477,-0.740379 l 3.445027,-16.288327 q 0.831037,-3.83788 3.097502,-5.454625 1.646964,-1.193672 4.140075,-1.193672 2.357124,0 3.701893,0.66483 1.843391,0.906586 1.843391,2.901075 0,1.29944 -0.740378,1.93405 -0.332415,0.287085 -0.785708,0.423073 -0.438183,0.135988 -0.921696,0.135988 -0.785707,0 -1.26922,-0.332415 -0.589281,-0.407963 -0.589281,-1.329659 0,-0.574171 0.271976,-1.027464 Q 69.068097,41.32 69.5365,41.32 h 0.151098 q 0.07555,0 0.105768,0.03022 -0.03022,-0.6195 -0.483513,-0.921696 -0.438183,-0.317305 -1.22389,-0.317305 -1.374989,0 -2.251356,1.072794 -0.725268,0.906585 -1.027464,2.417562 l -0.528841,2.538441 h 2.478001 l -0.241756,1.239 H 64.036545 L 60.50086,64.090417 q -0.589281,2.901075 -2.326904,4.230734 -1.329659,1.027464 -3.112611,1.027464 z m 13.900984,-7.554883 q -1.480757,0 -2.357124,-0.876366 -0.967024,-0.967025 -0.967024,-2.825526 0,-0.815927 0.256866,-2.024709 l 2.100257,-9.927115 h 4.457381 l -2.221136,10.516396 q -0.135988,0.453293 -0.135988,0.997245 0,0.63461 0.302196,0.891476 0.302195,0.256866 0.967025,0.256866 0.453293,0 0.876366,-0.196427 0.438183,-0.211537 0.800818,-0.574171 0.740378,-0.740379 1.118122,-1.96427 h 1.29944 q -0.831037,2.342014 -2.085148,3.732112 -1.057683,1.133233 -2.387343,1.631855 -0.967025,0.362634 -2.024708,0.362634 z m -14.762241,4.804906 q 0.241756,0 0.498622,-0.135988 0.256866,-0.135988 0.483513,-0.407964 0.559061,-0.664829 0.800817,-1.873611 l 0.377745,-1.798062 q -1.541196,0.468403 -2.447782,1.223891 -0.982135,0.785708 -0.982135,1.752733 0,0.66483 0.513732,1.012354 0.347524,0.226647 0.755488,0.226647 z m 21.478214,-4.804906 q -1.118123,0 -1.97938,-0.332414 -0.861256,-0.347525 -1.450537,-0.951916 -0.543952,-0.559061 -0.815927,-1.239 -0.271976,-0.69505 -0.271976,-1.435428 0,-1.012354 0.513732,-1.828282 0.453293,-0.725268 1.133232,-1.042573 1.208781,-2.145587 2.100258,-4.351613 0.891476,-2.206026 1.707403,-4.820015 L 81.193366,45.1881 q 0.181317,3.928539 0.332415,6.028797 0.151097,2.160696 0.256866,3.17305 0.09066,1.178562 0.09066,2.054929 0,0.785707 -0.120878,1.178561 1.390099,-0.815927 2.221136,-1.556306 h 1.29944 q -1.103013,1.28433 -2.281575,2.206026 -1.163452,0.921696 -2.447782,1.662074 -0.921696,0.967025 -2.311794,1.435428 -1.208781,0.423073 -2.55355,0.423073 z m -0.982135,-2.447781 q 1.163452,0 1.858501,-0.634611 0.831037,-0.755488 0.831037,-2.236245 0,-0.6195 -0.07555,-1.556306 l -0.07555,-0.921695 Q 77.09862,52.803422 76.962632,51.232007 l -0.166208,-2.085148 q -0.438183,1.405208 -1.042574,2.795306 -0.60439,1.374989 -1.465647,3.052173 0.710159,0.392854 0.710159,1.072793 0,0.604391 -0.362634,1.042574 -0.392854,0.483513 -0.997245,0.483513 -0.302195,0 -0.513732,-0.07555 -0.196427,-0.09066 -0.317305,-0.332415 0,1.118123 0.438183,1.646964 0.438184,0.513733 1.450538,0.513733 z m 11.796794,2.447781 q -1.118123,0 -1.97938,-0.332414 -0.861256,-0.347525 -1.450537,-0.951916 -0.543952,-0.559061 -0.815927,-1.239 -0.271976,-0.69505 -0.271976,-1.435428 0,-1.012354 0.513732,-1.828282 0.453293,-0.725268 1.133232,-1.042573 1.208782,-2.145587 2.100258,-4.351613 0.891476,-2.206026 1.707403,-4.820015 L 92.008025,45.1881 q 0.181317,3.928539 0.332415,6.028797 0.151098,2.160696 0.256866,3.17305 0.09066,1.178562 0.09066,2.054929 0,0.785707 -0.120879,1.178561 1.390099,-0.815927 2.221136,-1.556306 h 1.29944 q -1.103013,1.28433 -2.281575,2.206026 -1.163452,0.921696 -2.447782,1.662074 -0.921696,0.967025 -2.311794,1.435428 -1.208781,0.423073 -2.55355,0.423073 z m -0.982135,-2.447781 q 1.163452,0 1.858501,-0.634611 0.831037,-0.755488 0.831037,-2.236245 0,-0.6195 -0.07555,-1.556306 l -0.07555,-0.921695 q -0.135988,-1.193672 -0.271976,-2.765087 l -0.166208,-2.085148 q -0.438183,1.405208 -1.042573,2.795306 -0.604391,1.374989 -1.465648,3.052173 0.710159,0.392854 0.710159,1.072793 0,0.604391 -0.362634,1.042574 -0.392854,0.483513 -0.997245,0.483513 -0.302195,0 -0.513732,-0.07555 -0.196427,-0.09066 -0.317305,-0.332415 0,1.118123 0.438184,1.646964 0.438183,0.513733 1.450537,0.513733 z M 98.95458,44.462832 q -0.498622,0 -0.951915,-0.181318 -0.453293,-0.196426 -0.785708,-0.528841 -0.332414,-0.317305 -0.528841,-0.770598 -0.181318,-0.453293 -0.181318,-0.951916 0,-0.498622 0.181318,-0.951915 0.196427,-0.453293 0.528841,-0.800817 0.332415,-0.347525 0.785708,-0.528842 0.453293,-0.196427 0.951915,-0.196427 0.498623,0 0.951916,0.196427 0.453294,0.181317 0.800814,0.528842 0.34753,0.347524 0.52885,0.800817 0.19642,0.453293 0.19642,0.951915 0,0.498623 -0.19642,0.951916 -0.18132,0.453293 -0.52885,0.770598 -0.34752,0.332415 -0.800814,0.528841 -0.453293,0.181318 -0.951916,0.181318 z m -2.100257,17.3309 q -1.480757,0 -2.342014,-0.876366 -0.967025,-0.967025 -0.967025,-2.825526 0,-0.876366 0.241757,-2.024709 l 2.100257,-9.927115 h 4.457382 l -2.221137,10.516396 q -0.120878,0.392854 -0.120878,0.997245 0,0.63461 0.287086,0.891476 0.302195,0.256866 0.967025,0.256866 0.453293,0 0.876364,-0.196427 0.43819,-0.211537 0.80082,-0.574171 0.74038,-0.740379 1.11812,-1.96427 h 1.29944 q -0.83103,2.342014 -2.08515,3.732112 -1.05768,1.133233 -2.387338,1.631855 -0.967025,0.362634 -2.024709,0.362634 z m 8.714397,-0.06044 q -2.29668,0 -3.5508,-1.118122 -1.4052,-1.239001 -1.4052,-3.762332 0,-0.951915 0.19642,-2.100257 0.19643,-1.163452 0.60439,-2.342014 0.93681,-2.810416 2.67443,-4.4876 2.10026,-2.054928 5.00133,-2.054928 3.97387,0 3.97387,4.940893 v 0.03022 q 0.0907,0.03022 0.1511,0.03022 h 0.18132 q 1.02746,0 2.43267,-0.574171 1.239,-0.513732 2.34201,-1.28433 l 0.27198,0.846147 q -0.90659,0.951915 -2.34201,1.616745 -1.42032,0.664829 -3.14284,0.951915 -0.18131,2.100257 -0.81592,3.83788 -0.63461,1.722514 -1.63186,2.961514 -0.98213,1.208782 -2.25135,1.858502 -1.26922,0.649719 -2.68954,0.649719 z m 1.239,-2.780196 q 0.54395,0 1.10301,-0.483513 0.57417,-0.498622 1.0728,-1.374989 0.49862,-0.876366 0.86125,-2.054928 0.36264,-1.178561 0.54395,-2.52333 -0.45329,-0.120879 -0.64972,-0.453293 -0.18131,-0.332415 -0.18131,-0.846147 0,-0.63461 0.25686,-1.057684 0.25687,-0.423073 0.71016,-0.6195 -0.0604,-0.982135 -0.3173,-1.405208 -0.13599,-0.211537 -0.34753,-0.302196 -0.19642,-0.09066 -0.51373,-0.09066 -1.04257,0 -2.03982,1.571415 -0.92169,1.420318 -1.51097,3.505466 -0.57418,2.039818 -0.57418,3.626344 0,0.770598 0.0755,1.25411 0.0907,0.483513 0.28709,0.755488 0.18132,0.271976 0.4684,0.392854 0.28709,0.105769 0.75549,0.105769 z m 17.9918,2.840635 q -1.91894,0 -2.84064,-1.087903 -0.80081,-0.936805 -0.80081,-2.402452 0,-0.69505 0.1662,-1.616745 0.18132,-0.921696 0.52885,-2.372233 0.34752,-1.480757 0.51373,-2.357124 0.18132,-0.891476 0.18132,-1.541196 0,-1.586525 -1.11813,-1.586525 -0.78571,0 -1.45053,0.831037 -0.55907,0.710159 -0.96703,2.024708 l -2.10026,9.927116 h -4.45738 l 3.27882,-15.472399 h 4.45738 l -0.33241,1.601635 q 0.90658,-1.012355 1.94916,-1.420318 0.77059,-0.302196 1.66207,-0.302196 1.57142,0 2.478,0.815928 0.96703,0.891476 0.96703,2.674428 0,1.072794 -0.39286,2.795307 -0.10576,0.498622 -0.34752,1.495867 -0.43818,1.677184 -0.63461,2.674428 -0.12088,0.63461 -0.12088,1.027464 0,0.619501 0.27198,0.967025 0.28708,0.332415 0.96702,0.332415 0.9217,0 1.55631,-0.755488 0.48351,-0.574171 1.04257,-1.97938 h 1.29944 q -1.14834,3.399698 -2.90107,4.759577 -1.239,0.967024 -2.85575,0.967024 z m 7.1732,0 q -1.76784,0 -2.85575,-1.103012 -1.26922,-1.29944 -1.26922,-3.8681 0,-1.087903 0.22665,-2.296685 0.21154,-1.208781 0.63461,-2.387343 0.96703,-2.659318 2.64421,-4.291173 1.93405,-1.858501 4.45738,-1.858501 1.25411,0 1.87361,0.438183 0.63461,0.423074 0.63461,1.133233 v 0.226646 l 0.33242,-1.646964 h 4.45738 l -2.22114,10.516396 q -0.13599,0.453293 -0.13599,0.997245 0,1.329659 1.26922,1.329659 0.84615,0 1.5412,-0.861256 0.58928,-0.725269 0.96703,-2.054929 h 1.29944 q -0.83104,2.357124 -2.0096,3.732112 -0.99725,1.133233 -2.25136,1.631855 -0.92169,0.362634 -1.94916,0.362634 -1.31455,0 -2.10026,-0.710158 -0.77059,-0.725269 -0.9368,-2.130477 -0.87637,1.239 -1.84339,1.93405 -1.239,0.906585 -2.76509,0.906585 z m 2.0096,-2.991733 q 0.34752,0 0.72527,-0.181317 0.39285,-0.181317 0.75549,-0.513732 0.81592,-0.785708 1.0879,-2.039819 l 1.48076,-6.980711 q 0,-0.151098 -0.0756,-0.347525 -0.0604,-0.211536 -0.18132,-0.392854 -0.36263,-0.438183 -1.01235,-0.438183 -0.6195,0 -1.20879,0.407964 -0.57417,0.407963 -1.0879,1.133232 -0.90658,1.31455 -1.49586,3.429917 -0.27198,0.936805 -0.40797,1.858501 -0.13599,0.906586 -0.13599,1.646965 0,1.541196 0.57417,2.085147 0.19643,0.211537 0.43819,0.271976 0.24175,0.06044 0.54395,0.06044 z m 12.61272,2.991733 q -1.48076,0 -2.34201,-0.876366 -0.96703,-0.967025 -0.96703,-2.825526 0,-0.876366 0.24176,-2.024709 l 3.30904,-15.502619 4.57826,-0.6195 -3.5508,16.7114 q -0.12088,0.392854 -0.12088,0.997245 0,0.63461 0.28709,0.891476 0.30219,0.256866 0.96702,0.256866 0.4533,0 0.87637,-0.196427 0.43818,-0.211537 0.80082,-0.574171 0.74038,-0.740379 1.11812,-1.96427 h 1.29944 q -0.83104,2.342014 -2.08515,3.732112 -1.05768,1.133233 -2.38734,1.631855 -0.96702,0.362634 -2.02471,0.362634 z m 9.36411,-17.3309 q -0.49862,0 -0.95191,-0.181318 -0.45329,-0.196426 -0.78571,-0.528841 -0.33241,-0.317305 -0.52884,-0.770598 -0.18132,-0.453293 -0.18132,-0.951916 0,-0.498622 0.18132,-0.951915 0.19643,-0.453293 0.52884,-0.800817 0.33242,-0.347525 0.78571,-0.528842 0.45329,-0.196427 0.95191,-0.196427 0.49863,0 0.95192,0.196427 0.45329,0.181317 0.80082,0.528842 0.34752,0.347524 0.52884,0.800817 0.19643,0.453293 0.19643,0.951915 0,0.498623 -0.19643,0.951916 -0.18132,0.453293 -0.52884,0.770598 -0.34753,0.332415 -0.80082,0.528841 -0.45329,0.181318 -0.95192,0.181318 z m -2.10025,17.3309 q -1.48076,0 -2.34202,-0.876366 -0.96702,-0.967025 -0.96702,-2.825526 0,-0.876366 0.24175,-2.024709 l 2.10026,-9.927115 h 4.45738 l -2.22113,10.516396 q -0.12088,0.392854 -0.12088,0.997245 0,0.63461 0.28708,0.891476 0.3022,0.256866 0.96703,0.256866 0.45329,0 0.87637,-0.196427 0.43818,-0.211537 0.80081,-0.574171 0.74038,-0.740379 1.11813,-1.96427 h 1.29944 q -0.83104,2.342014 -2.08515,3.732112 -1.05769,1.133233 -2.38734,1.631855 -0.96703,0.362634 -2.02471,0.362634 z M 165.94277,47.8172 h -1.72251 q -0.83104,0 -1.20878,0.07555 -0.49862,0.09066 -0.49862,0.407964 0,0.07555 0.0604,0.09066 0.12088,0.03022 0.22664,0.211536 0.0453,0.105769 0.0453,0.377744 0,0.815928 -0.51373,1.254111 -0.48351,0.392854 -1.14834,0.392854 -0.54395,0 -0.96703,-0.347525 -0.45329,-0.377744 -0.45329,-1.012354 0,-0.483512 0.25687,-1.027464 0.25686,-0.559061 0.71016,-1.012354 0.48351,-0.498623 1.14834,-0.785708 0.67994,-0.302195 1.46565,-0.302195 h 7.96284 l -7.5851,13.085056 q 0.1511,0.01511 1.05768,0.105769 0.63461,0.09066 1.28433,0.09066 0.63461,0 1.01236,-0.135988 0.37774,-0.135987 0.45329,-0.483512 -0.3022,-0.03022 -0.45329,-0.196427 -0.13599,-0.181317 -0.13599,-0.453293 0,-0.226646 0.10577,-0.453293 0.12088,-0.241756 0.33241,-0.438183 0.51373,-0.438183 1.28433,-0.438183 0.69505,0 1.02747,0.407963 0.34752,0.407964 0.34752,1.072794 0,0.543951 -0.25686,1.133232 -0.25687,0.574171 -0.74038,1.057684 -0.51374,0.513732 -1.22389,0.815927 -0.69505,0.302195 -1.55631,0.302195 h -8.2046 z m 8.0798,13.976532 q -1.76784,0 -2.85574,-1.103012 -1.26922,-1.29944 -1.26922,-3.8681 0,-1.087903 0.22664,-2.296685 0.21154,-1.208781 0.63461,-2.387343 0.96703,-2.659318 2.64421,-4.291173 1.93405,-1.858501 4.45738,-1.858501 1.25411,0 1.87361,0.438183 0.63461,0.423074 0.63461,1.133233 v 0.226646 l 0.33242,-1.646964 h 4.45738 l -2.22114,10.516396 q -0.13599,0.453293 -0.13599,0.997245 0,1.329659 1.26922,1.329659 0.84615,0 1.5412,-0.861256 0.58928,-0.725269 0.96703,-2.054929 h 1.29944 q -0.83104,2.357124 -2.0096,3.732112 -0.99725,1.133233 -2.25136,1.631855 -0.92169,0.362634 -1.94916,0.362634 -1.31455,0 -2.10026,-0.710158 -0.77059,-0.725269 -0.9368,-2.130477 -0.87637,1.239 -1.84339,1.93405 -1.239,0.906585 -2.76509,0.906585 z m 2.0096,-2.991733 q 0.34752,0 0.72527,-0.181317 0.39285,-0.181317 0.75549,-0.513732 0.81592,-0.785708 1.0879,-2.039819 l 1.48076,-6.980711 q 0,-0.151098 -0.0755,-0.347525 -0.0604,-0.211536 -0.18132,-0.392854 -0.36263,-0.438183 -1.01235,-0.438183 -0.6195,0 -1.20878,0.407964 -0.57418,0.407963 -1.08791,1.133232 -0.90658,1.31455 -1.49586,3.429917 -0.27198,0.936805 -0.40797,1.858501 -0.13599,0.906586 -0.13599,1.646965 0,1.541196 0.57418,2.085147 0.19642,0.211537 0.43818,0.271976 0.24175,0.06044 0.54395,0.06044 z"
       id="text12"
       style="font-size:30.9448px;font-family:Pattaya;-inkscape-font-specification:Pattaya;letter-spacing:-1.00118px;fill:#1519fa;stroke-width:1.70716;stroke-linecap:square;paint-order:stroke fill markers"
       aria-label="rofissionaliza" />
    <path
       fill="#F9CB1A"
       d="m 5.3351982,37.789597 c 0.2389612,0.977849 0.7470587,1.786262 1.2059456,2.692089 1.4247229,2.864192 3.0949216,5.485587 5.1319662,7.986946 1.55146,2.01042 3.348396,3.778022 5.685626,4.962672 0.681681,0.345511 0.681681,0.345511 0.856448,-0.361515 0.05062,-0.341539 0.198797,-0.633654 0.249424,-0.975181 0.39621,-1.023218 0.79242,-2.046402 1.262007,-3.093605 0.122855,-0.121513 0.148168,-0.292299 0.270687,-0.41356 0.740409,-1.460774 1.651567,-2.89619 2.781504,-4.159514 1.252689,-1.384734 2.821532,-2.547977 4.486398,-3.417765 1.395426,-0.700341 2.838848,-1.25397 4.523761,-1.317956 -0.349531,1.414054 -0.649718,2.730739 -0.949871,4.047458 -0.700413,3.072266 -1.156701,6.145893 -1.100674,9.295561 -0.08134,1.488787 -0.01688,2.929538 0.220062,4.395636 0.137368,1.66089 0.421522,3.273744 0.77902,4.862602 0.286888,1.12457 0.549611,2.175791 0.836399,3.300396 0.07222,0.22006 0.144119,0.440223 -0.173484,0.462902 -0.708378,0.06949 -1.440755,0.06549 -2.101104,0.281492 -2.978918,0.0814 -5.881792,-0.349564 -8.635215,-1.316753 C 17.813269,64.004934 15.233264,62.574819 12.973424,60.633765 11.053734,58.987528 9.3795522,57.098517 8.0241895,54.942703 7.1770907,53.595336 6.5500884,52.175914 5.9231173,50.756492 5.0786871,48.920842 4.6745112,46.941103 4.1475812,45.082809 3.5499407,42.760226 3.2698035,40.415 3.1364515,38.021736 c -0.1134075,-1.587508 -0.056025,-3.149668 0.00125,-4.711829 0.027008,-0.170786 0.050621,-0.341526 0.272039,-0.657683 0.4562195,1.394075 0.8644112,2.641406 1.2726039,3.888726 0.070549,0.464254 0.2882384,0.88048 0.6523505,1.24867 z"
       id="path20"
       style="fill:#facc15;fill-opacity:1;stroke:none;stroke-width:1.34108;stroke-dasharray:none;stroke-opacity:1" />
  </g>
</svg>
