<?xml version="1.0" encoding="utf-8"?>
<!-- Generator: Adobe Illustrator 28.0.0, SVG Export Plug-In . SVG Version: 6.00 Build 0)  -->
<svg version="1.0" width="150" height="50" id="Camada_1" xmlns="http://www.w3.org/2000/svg" xmlns:xlink="http://www.w3.org/1999/xlink" x="0px" y="0px"
	 viewBox="0 0 278 68" enable-background="new 0 0 278 68" xml:space="preserve">
<path fill="#FFFFFF" d="M68.4,56.3h186c11.9,0,21.6-9.7,21.6-21.6v0c0-11.9-9.7-21.6-21.6-21.6h-186c-11.9,0-21.6,9.7-21.6,21.6v0
	C46.8,46.7,56.5,56.3,68.4,56.3z"/>
<path fill="#1F71B6" d="M83,22.1c0.6,0.1,1.3,0.3,1.9,0.4c3.5,1,5.7,4,5.7,7.5c0,3.4-2.4,6.5-5.8,7.5c-1.1,0.3-2.3,0.4-3.4,0.5
	c-2,0-4,0-6,0c-0.6,0-0.6,0.3-0.6,0.8c0,1.9,0,3.9,0,5.8c0,0.6-0.2,0.7-0.7,0.8c-2,0-2,0-2-1.9c0-6.8,0-13.6,0-20.4
	c0-1.1,0-1.1,1.1-1.1C76.5,22.1,79.8,21.9,83,22.1z M74.8,30C74.8,30,74.8,30,74.8,30c0,1.6,0,3.3,0,4.9c0,0.5,0,0.8,0.6,0.8
	c2.2,0,4.4,0,6.6-0.1c1.5-0.1,3-0.5,4.1-1.6c1.8-1.7,1.9-3.8,1.2-6c-0.8-2.4-2.7-3.2-5-3.5c-2.3-0.3-4.6-0.1-6.9-0.2
	c-0.5,0-0.7,0.2-0.7,0.7C74.9,26.7,74.8,28.3,74.8,30z"/>
<path fill="#1F71B6" d="M222.6,39.6c0,2.1,0,3.6,0,5.1c0,0.5-0.1,0.8-0.7,0.7c-0.4-0.1-0.8,0-1.1,0c-0.7,0-1-0.4-0.8-1.1
	c0-0.1,0.1-0.1,0.1-0.2c0-0.2,0.1-0.5,0-0.7c-0.2-0.2-0.4,0.1-0.6,0.2c-1.8,1.5-4,2.1-6.3,1.9c-2.6-0.2-4.9-1.8-5.3-4.4
	c-0.5-3.9,1.8-5.4,4.6-5.8c2.2-0.3,4.4-0.1,6.6-0.1c0.7,0,0.8-0.2,0.9-0.9c0.1-2-0.7-3.4-2.4-4.1c-1.2-0.5-2.6-0.5-3.9-0.3
	c-1.4,0.2-2.6,0.8-3.7,1.6c-0.4,0.3-0.6,0.2-0.9-0.2c-1-1.6-1-1.6,0.7-2.5c2.7-1.4,5.5-1.7,8.4-1c2.4,0.6,4.4,2.3,4.5,5.5
	C222.5,35.7,222.6,37.9,222.6,39.6z M216.8,37.3C216.8,37.3,216.8,37.3,216.8,37.3c-0.8,0-1.7,0-2.5,0c-0.3,0-0.7,0.1-1,0.1
	c-1.7,0.2-2.8,1.2-2.9,2.6c-0.1,1.5,0.7,2.7,2.4,3.2c0.5,0.2,1.1,0.2,1.7,0.2c3.4,0.3,5.9-2.2,5.6-5.5c0-0.5-0.2-0.6-0.6-0.6
	C218.5,37.3,217.6,37.3,216.8,37.3z"/>
<path fill="#1F71B6" d="M262.5,43.3c-1.1,0.9-2.1,1.6-3.4,1.9c-2.2,0.7-4.3,0.6-6.3-0.5c-1.8-0.9-2.5-2.6-2.5-4.5
	c0-1.9,0.9-3.4,2.7-4.2c1.6-0.8,3.4-0.7,5.2-0.7c1.2,0,2.4,0,3.6,0c0.6,0,0.7-0.2,0.7-0.8c0-2.9-1.6-4.6-4.5-4.6
	c-2.1,0-4,0.5-5.7,1.8c-0.3,0.2-0.4,0.2-0.7-0.1c-1.1-1.7-1.2-1.9,0.7-2.8c3-1.4,6.1-1.8,9.3-0.6c2.4,0.9,3.4,3,3.4,5.4
	c0.1,3.6,0,7.3,0.1,10.9c0,0.6-0.1,0.8-0.8,0.8c-1.8,0-1.8,0-1.9-1.7C262.5,43.6,262.5,43.5,262.5,43.3z M259.2,37.3
	c-1.4,0-2.9-0.1-4.3,0.3c-1.3,0.4-2,1.2-2.1,2.5c-0.1,1.2,0.4,2.2,1.5,2.7c2,1,4,1,5.9-0.2c1.8-1,2.5-2.6,2.3-4.7
	c-0.1-0.5-0.2-0.7-0.7-0.6C261,37.3,260.1,37.3,259.2,37.3z"/>
<path fill="#1F71B6" d="M184.6,43.9c-1.3,0.8-2.7,1.4-4.2,1.6c-2.8,0.4-5.2-0.3-7.3-2.1c-2.5-2.1-3.1-5-2.9-8.1
	c0.3-3.5,2.6-6.3,5.6-7.2c3.3-1,6.5-0.7,9.3,1.5c1.3,1.3,2.4,2.8,2.7,4.7C188.5,38.1,187.7,41.4,184.6,43.9z M172.8,36.6
	c-0.1,1.3,0.3,2.6,1,3.8c1.4,2.2,4,3.2,6.6,2.7c2.7-0.6,4.5-2.5,5-5.4c0.5-2.8-0.8-5.7-3-7C178.5,28.5,172.6,30.7,172.8,36.6z"/>
<path fill="#1F71B6" d="M192.2,30.3c0.9-0.7,1.5-1.5,2.4-1.9c2.9-1.2,5.7-1.3,8.4,0.4c1.6,1,2.4,2.5,2.7,4.3
	c0.2,0.9,0.2,1.8,0.2,2.6c0,2.9,0,5.8,0,8.7c0,0.6-0.1,0.9-0.8,0.9c-1.8,0-1.8,0-1.8-1.8c0-2.7,0-5.3,0-8c0-0.9-0.1-1.7-0.4-2.6
	c-0.4-1.6-2.1-2.7-3.8-2.9c-1.6-0.2-3.2,0-4.6,0.9c-1.5,1-2.2,2.4-2.3,4.1c-0.2,3.1-0.1,6.2-0.1,9.3c0,0.8-0.2,1.1-1,1.1
	c-1.9-0.1-1.6,0.2-1.6-1.6c0-5.1,0-10.1,0-15.2c0-0.7,0.1-0.9,0.9-0.9c1.7,0.1,1.7,0.1,1.7,1.8C192.2,29.7,192.2,29.9,192.2,30.3z"
	/>
<path fill="#1F71B6" d="M239.5,43.2c2.4,0,4.7,0,7.1,0c1,0,2,0,3.1,0c0.4,0,0.6,0.1,0.6,0.6c-0.1,1.7,0.3,1.7-1.7,1.6
	c-3.8-0.1-7.6,0-11.5,0c-1.3,0-1.6-0.6-1.1-1.9c0.4-1.1,1.3-1.8,1.9-2.7c1.7-2.2,3.5-4.4,5.2-6.6c1.1-1.4,2.2-2.8,3.4-4.4
	c-0.5,0-0.9,0-1.3,0c-2.8,0-5.7,0-8.5,0c-0.6,0-0.9-0.1-0.8-0.8c0-0.2,0-0.3,0-0.5c-0.2-0.9-0.1-1,0.9-1c3.3,0,6.7,0,10,0
	c0.8,0,1.5,0,2.3,0c0.7,0,1,0.3,0.9,1c-0.1,0.7-0.4,1.3-0.8,1.9c-3.1,4-6.3,7.9-9.4,11.9C239.7,42.6,239.5,42.8,239.5,43.2z"/>
<path fill="#1F71B6" d="M225.8,33c0-3.8,0-7.7,0-11.5c0-0.7,0.2-0.9,0.9-0.9c1.7,0.1,1.7,0.1,1.7,1.8c0,7.3,0,14.6,0,22
	c0,1-0.1,1.1-1.2,1.2c-1.5,0-1.5,0-1.5-1.4C225.8,40.4,225.8,36.7,225.8,33z"/>
<path fill="#1F71B6" d="M231.8,36.6c0-2.7,0-5.4,0-8.1c0-0.6,0.2-0.8,0.8-0.8c1.8,0,1.8,0,1.8,1.9c0,4.9,0,9.9,0,14.8
	c0,0.8-0.2,1.1-1,1.1c-1.6,0-1.6,0.1-1.6-1.5C231.8,41.5,231.8,39.1,231.8,36.6z"/>
<path fill="#1F71B6" d="M194.8,47.5"/>
<path fill="#1F71B6" d="M234.9,22.4c0,1-0.8,1.8-1.8,1.8c-1.1,0-1.9-0.8-1.9-1.8c0-1,0.6-1.7,1.9-1.7
	C234.1,20.6,234.9,21.3,234.9,22.4z"/>
<path fill="#1F71B6" d="M157.5,43.2c0.9,0,1.8-0.1,2.7-0.4c1.1-0.3,1.9-1.2,1.9-2.2c0.1-1-0.5-1.8-1.7-2.2c-1.6-0.6-3.3-0.7-4.9-1.1
	c-1.1-0.3-2.2-0.6-3.1-1.3c-2.3-1.9-2-5.6,0.6-7.3c1.5-1,3.2-1.2,4.9-1.2c1.9,0,3.7,0.4,5.4,1.2c0.9,0.4,0.9,0.5,0.4,1.3
	c-0.7,1.2-0.7,1.2-2,0.6c-2-0.9-4-1.1-6.1-0.6c-1.3,0.3-2.1,1.3-2.1,2.3c0,1,0.6,1.8,1.9,2.4c0.3,0.1,0.7,0.2,1,0.3
	c1.3,0.3,2.6,0.5,3.9,0.8c0.6,0.1,1.2,0.3,1.8,0.6c1.6,0.6,2.5,1.8,2.7,3.4c0.2,1.7-0.4,3.2-1.9,4.2c-1.9,1.3-4.1,1.5-6.3,1.4
	c-2-0.1-3.8-0.6-5.5-1.6c-0.4-0.2-0.8-0.4-1.2,0c-1.5,1.3-3.3,1.6-5.2,1.6c-2.5,0.1-4.8-0.4-7-1.6c-0.6-0.4-0.8-0.7-0.4-1.3
	c0.7-1.3,0.7-1.3,2-0.6c2.4,1.3,4.9,1.6,7.6,0.9c0.6-0.1,1.1-0.4,1.4-0.8c1-1.2,0.7-2.7-0.8-3.4c-1.4-0.7-3-0.8-4.5-1.1
	c-1-0.2-2-0.5-3-0.9c-2.9-1.5-3.3-5.5-0.8-7.5c1.3-1,2.9-1.5,4.5-1.6c2.2-0.1,4.4,0.2,6.4,1.2c0.6,0.3,0.8,0.6,0.4,1.2
	c-0.3,0.4-0.4,1.1-0.8,1.2c-0.4,0.1-0.8-0.4-1.3-0.6c-1.9-0.8-3.9-1.1-6-0.5c-0.4,0.1-0.8,0.3-1.1,0.5c-0.8,0.5-1.2,1.2-1.2,2.2
	c0.1,0.9,0.6,1.5,1.4,1.8c1,0.5,2,0.6,3,0.8c1.5,0.3,3,0.5,4.4,1.1c1.7,0.8,2.6,2.1,2.5,4c0,0.6,0.2,0.9,0.7,1.2
	C153.8,42.7,155.5,43.2,157.5,43.2z"/>
<path fill="#1F71B6" d="M117.8,36.6c0,5.2-3.7,9-8.9,9c-5.2,0-9-3.8-9-9c0-5.3,3.8-9,9.1-9C114.1,27.5,117.8,31.4,117.8,36.6z
	 M108.9,29.9c-3.9,0-6.4,3-6.3,6.6c0.1,4.2,2.7,6.8,6.7,6.7c3.5-0.1,6.1-3,6-6.8C115.1,32.6,112.4,29.8,108.9,29.9z"/>
<path fill="#1F71B6" d="M119.9,37.7c0-2.3,0-4.6,0-7c0-0.6-0.2-0.9-0.8-0.8c-0.3,0-0.7,0-1,0c-0.4-0.1-1,0.3-1.3-0.2
	c-0.2-0.5-0.1-1.2-0.1-1.8c0-0.3,0.3-0.3,0.5-0.3c0.6,0,1.1-0.1,1.7,0c0.8,0.1,1-0.2,0.9-0.9c0-0.7-0.1-1.5,0.1-2.3
	c0.4-2.2,1.6-3.5,3.9-4c1.5-0.3,3-0.2,4.4,0.6c0.5,0.2,0.7,0.5,0.4,1.1c-0.1,0.2-0.2,0.5-0.3,0.7c-0.2,0.5-0.5,0.6-1,0.3
	c-1-0.7-2-0.7-3.1-0.4c-0.8,0.2-1.4,0.7-1.6,1.5c-0.3,0.9-0.3,1.9-0.3,2.9c0,0.5,0.4,0.4,0.7,0.4c1.3,0,2.6,0,4,0
	c0.6,0,0.8,0.2,0.8,0.7c0,0.2,0,0.5,0,0.7c0,0.7-0.3,0.9-0.9,0.9c-1.2,0-2.4,0-3.6-0.1c-0.7,0-0.9,0.2-0.9,0.9c0,4.4,0,8.9,0,13.3
	c0,1.3,0,1.3-1.2,1.2c-1.5,0-1.4,0.2-1.4-1.4C119.9,41.9,119.9,39.8,119.9,37.7z"/>
<path fill="#1F71B6" d="M94.2,30.4c1.5-2,3.5-2.7,5.7-2.8c0.7,0,0.9,0.1,0.8,0.8c-0.1,0.5,0.3,1.2-0.1,1.6c-0.4,0.4-1,0.1-1.5,0.2
	c-2.7,0.4-4.7,2.5-4.7,5.3c0,3,0,6,0,9c0,1,0,1.1-1,1c-1.6,0-1.6,0-1.6-1.7c0-4.9,0-9.9,0-14.8c0-0.4-0.2-1,0.3-1.2
	c0.7-0.2,1.4-0.3,2.1,0c0.3,0.1,0.2,0.4,0.2,0.6C94.2,29,94.2,29.6,94.2,30.4z"/>
<path fill="#1F71B6" d="M135.9,36.6c0,2.6,0,5.3,0,7.9c0,0.7-0.1,1-0.9,0.9c-1.7-0.1-1.7-0.1-1.7-1.8c0-5,0-9.9,0-14.9
	c0-0.8,0.2-1,1-1c1.6,0.1,1.6,0,1.6,1.7C135.9,31.8,135.9,34.2,135.9,36.6z"/>
<path fill="#1F71B6" d="M168.5,36.6c0,2.7,0,5.3,0,8c0,0.6-0.2,0.8-0.8,0.8c-1.8-0.1-1.8,0-1.8-1.9c0-5,0-9.9,0-14.9
	c0-0.8,0.2-1,1-1c1.6,0.1,1.6,0,1.6,1.7C168.5,31.8,168.5,34.2,168.5,36.6z"/>
<path fill="#1F71B6" d="M132.8,22.4c0-1,0.7-1.8,1.8-1.8c1.1,0,1.9,0.7,1.9,1.8c0,1-0.8,1.9-1.8,1.9
	C133.6,24.2,132.8,23.4,132.8,22.4z"/>
<circle fill="#1F71B6" cx="34.2" cy="34" r="32"/>
<path fill="#1F71B6" d="M167.1,24.2c-1.1,0-1.8-0.8-1.8-1.9c0-1,0.8-1.7,1.9-1.7c1.1,0,1.9,0.8,1.8,1.8
	C169,23.5,168.2,24.2,167.1,24.2z"/>
<path fill="#F9CB1A" d="M6.8,20.3c-0.1,1.3,0.2,2.5,0.4,3.8c0.6,4.1,1.6,8,3.1,11.9c1.1,3.1,2.6,6,5,8.4c0.7,0.7,0.7,0.7,1.2-0.1
	c0.2-0.4,0.5-0.7,0.7-1.1c0.9-1.1,1.8-2.2,2.8-3.3c0.2-0.1,0.3-0.3,0.5-0.4c1.5-1.5,3.2-2.9,5.1-4c2.1-1.2,4.5-2,6.9-2.4
	c2-0.3,4-0.4,6.1,0.2c-1,1.6-1.9,3.1-2.8,4.6c-2.1,3.5-3.9,7.1-5.1,11c-0.7,1.8-1.2,3.6-1.5,5.5c-0.5,2.1-0.8,4.2-1,6.3
	c-0.1,1.5-0.2,2.9-0.3,4.4c0,0.3,0,0.6-0.4,0.5c-0.9-0.2-1.8-0.5-2.7-0.5c-3.7-1.1-7.1-2.8-10.1-5.1c-3.1-2.4-5.7-5.2-7.7-8.5
	c-1.7-2.8-3-5.8-3.8-9c-0.5-2-0.7-4-0.9-6c-0.3-2.6,0-5.2,0.1-7.7c0.2-3.1,0.8-6.1,1.6-9.1c0.5-2,1.2-3.9,1.9-5.8
	c0.1-0.2,0.2-0.4,0.6-0.7c0,1.9,0,3.6,0,5.3C6.4,19.1,6.5,19.7,6.8,20.3z"/>
<path fill="#F9CB1A" d="M15.6,36.6c-2.4-1.1-3.8-2.9-4-5.6c-0.2-3.5,2.9-7.1,7.7-6.1c1.2,0.3,2.2,1,3,1.8c1.1,1.5,1.7,3.1,1.4,5
	c-0.5,2.7-2.2,4.3-4.8,5.1C17.9,37,16.7,37,15.6,36.6z"/>
<path fill="#F9CB1A" d="M35.3,14.3c1.3,2.4,1.1,4.6-0.7,6.6c-1.8,1.5-3.8,1.8-6,0.8c-1.2-0.7-1.9-1.7-2.4-2.9
	c-0.2-1-0.3-1.9-0.1-2.9c0.5-2,1.8-3.1,3.7-3.6c1.9-0.5,3.6-0.1,4.9,1.4C34.9,13.9,35.1,14.1,35.3,14.3z"/>
<path fill="#F9CB1A" d="M49.3,21.4c-2.7,0.3-4.5-0.7-5.2-2.9c-0.2-0.7-0.1-1.5-0.1-2.2c0.9-2.5,3.1-3.8,5.4-3c1.7,0.6,2.9,2.1,3,3.9
	c0.1,1.8-1,3.3-2.6,4.1C49.5,21.2,49.4,21.3,49.3,21.4z"/>
</svg>
