<?xml version="1.0" ?><svg data-name="Layer 2" id="Layer_2" viewBox="0 0 2000 2000" xmlns="http://www.w3.org/2000/svg"><defs><style>.cls-1{fill:#c8c2e9;}.cls-2{fill:#dfdafd;}.cls-3{fill:#8a87b2;}.cls-4{fill:#4d4c78;}.cls-5{fill:#f8881b;}.cls-6{fill:#f08000;}.cls-7{fill:#f4c23f;}.cls-8{fill:#fad564;}.cls-9{fill:#f4a93f;}.cls-10{fill:#cf6b00;}</style></defs><title/><path class="cls-1" d="M1255.8,1632.1H670a93.6,93.6,0,0,1-93.6-93.7V498.5A93.7,93.7,0,0,1,670,404.8h786.6a93.7,93.7,0,0,1,93.7,93.7v802a107.2,107.2,0,0,1-24.9,68.7l-187.2,224.4A107.4,107.4,0,0,1,1255.8,1632.1Z"/><path class="cls-2" d="M1456.6,404.8H670a93.4,93.4,0,0,0-70.8,32.4,89.3,89.3,0,0,1,16.4-1.5h786.6a93.7,93.7,0,0,1,93.7,93.7v802a107.5,107.5,0,0,1-24.9,68.8l-187.2,224.3-4.5,5a107.4,107.4,0,0,0,58.9-35.9l187.2-224.4a107.2,107.2,0,0,0,24.9-68.7v-802A93.7,93.7,0,0,0,1456.6,404.8Z"/><path class="cls-3" d="M1282.3,1350.6l-54.1,281.5h27.6a107.4,107.4,0,0,0,82.4-38.5l32.6-39.1C1328.3,1456.8,1282.3,1350.6,1282.3,1350.6Z"/><path class="cls-3" d="M616.8,1446V421.4a93.9,93.9,0,0,0-40.4,77.1V1446Z"/><path class="cls-4" d="M1338.2,1593.6l187.2-224.4a107.1,107.1,0,0,0,24.2-56.5H1328a45.6,45.6,0,0,0-45.7,45.7v270.4A107,107,0,0,0,1338.2,1593.6Z"/><path class="cls-3" d="M1373.7,726.5h-645a28,28,0,0,1,0-56h645a28,28,0,0,1,0,56Z"/><path class="cls-3" d="M1219.1,890.9H728.7a28,28,0,0,1,0-56h490.4a28,28,0,0,1,0,56Z"/><path class="cls-3" d="M1301.2,1055.4H728.7a28,28,0,1,1,0-56h572.5a28,28,0,0,1,0,56Z"/><path class="cls-4" d="M1378.5,719.3h-645a28,28,0,0,1,0-56h645a28,28,0,0,1,0,56Z"/><path class="cls-4" d="M1223.9,883.7H733.5a28,28,0,0,1,0-56h490.4a28,28,0,0,1,0,56Z"/><path class="cls-4" d="M1306,1048.2H733.5a28,28,0,0,1,0-56H1306a28,28,0,0,1,0,56Z"/><path class="cls-3" d="M801.7,1254a315.8,315.8,0,0,0-223.6-92.6h-1.7v377a93.6,93.6,0,0,0,93.6,93.7H854.1a324.2,324.2,0,0,0,15.4-31.3A315.9,315.9,0,0,0,801.7,1254Z"/><circle class="cls-5" cx="578.1" cy="1477.7" r="268.3"/><circle class="cls-6" cx="578.1" cy="1477.7" r="237"/><circle class="cls-7" cx="578.1" cy="1477.7" r="210.3"/><path class="cls-8" d="M768.9,1433.7c5,0,9.9-.2,14.8-.6-19.7-91.2-98.5-160.4-194.3-165.5C596.5,1360.5,674.2,1433.7,768.9,1433.7Z"/><path class="cls-9" d="M569.6,1674.7a30.9,30.9,0,0,1-30.9-31v-37.4H481.2a31,31,0,0,1,0-61.9H611a16,16,0,0,0,0-32H528.2a77.9,77.9,0,1,1,0-155.8h10.5v-24.7a31,31,0,1,1,61.9,0v24.7H658a31,31,0,1,1,0,61.9H528.2a16,16,0,1,0,0,31.9H611a78,78,0,0,1,0,155.9H600.6v37.4A31,31,0,0,1,569.6,1674.7Z"/><path class="cls-10" d="M616.8,1446H533.9a21.7,21.7,0,1,1,0-43.4H663.8a25.2,25.2,0,1,0,0-50.4H600.6v-30.5a25.2,25.2,0,0,0-50.4,0v30.5H533.9a72.2,72.2,0,0,0,0,144.3h82.9a21.8,21.8,0,0,1,0,43.5H487a25.2,25.2,0,1,0,0,50.4h63.2v43.2a25.2,25.2,0,0,0,50.4,0v-43.2h16.2a72.2,72.2,0,0,0,0-144.4Z"/></svg>