<?xml version="1.0" encoding="UTF-8" standalone="no"?>
<!-- Generator: Adobe Illustrator 28.0.0, SVG Export Plug-In . SVG Version: 6.00 Build 0)  -->

<svg
   version="1.0"
   id="Camada_1"
   x="0px"
   y="0px"
   viewBox="0 0 278 68"
   enable-background="new 0 0 278 68"
   xml:space="preserve"
   sodipodi:docname="Logo.svg"
   inkscape:version="1.3.2 (091e20e, 2023-11-25, custom)"
   xmlns:inkscape="http://www.inkscape.org/namespaces/inkscape"
   xmlns:sodipodi="http://sodipodi.sourceforge.net/DTD/sodipodi-0.dtd"
   xmlns:xlink="http://www.w3.org/1999/xlink"
   xmlns="http://www.w3.org/2000/svg"
   xmlns:svg="http://www.w3.org/2000/svg"><defs
   id="defs23"><linearGradient
     id="linearGradient58"
     inkscape:collect="always"><stop
       style="stop-color:#ffd500;stop-opacity:1;"
       offset="0"
       id="stop57" /><stop
       style="stop-color:#6eecff;stop-opacity:1;"
       offset="1"
       id="stop58" /></linearGradient><linearGradient
     id="linearGradient29"
     inkscape:collect="always"><stop
       style="stop-color:#00ffff;stop-opacity:1;"
       offset="0"
       id="stop29" /><stop
       style="stop-color:#ffd500;stop-opacity:1;"
       offset="1"
       id="stop30" /></linearGradient><linearGradient
     inkscape:collect="always"
     xlink:href="#linearGradient58"
     id="linearGradient28"
     x1="69.13721"
     y1="32.294683"
     x2="273.01295"
     y2="32.294683"
     gradientUnits="userSpaceOnUse"
     gradientTransform="translate(1.0606601,1.4142138)" /><linearGradient
     inkscape:collect="always"
     xlink:href="#linearGradient29"
     id="linearGradient30"
     x1="2.2000008"
     y1="34"
     x2="66.200005"
     y2="34"
     gradientUnits="userSpaceOnUse"
     spreadMethod="reflect"
     gradientTransform="translate(2)" /></defs><sodipodi:namedview
   id="namedview23"
   pagecolor="#505050"
   bordercolor="#eeeeee"
   borderopacity="1"
   inkscape:showpageshadow="0"
   inkscape:pageopacity="0"
   inkscape:pagecheckerboard="0"
   inkscape:deskcolor="#505050"
   inkscape:zoom="2.8284271"
   inkscape:cx="118.44039"
   inkscape:cy="94.929085"
   inkscape:window-width="1920"
   inkscape:window-height="1009"
   inkscape:window-x="1912"
   inkscape:window-y="-8"
   inkscape:window-maximized="1"
   inkscape:current-layer="Camada_1" />


















<circle
   fill="#1F71B6"
   cx="36.200001"
   cy="34"
   r="32"
   id="circle18"
   style="fill:#072ac8;stroke:url(#linearGradient30);stroke-width:0.5;stroke-dasharray:none;fill-opacity:1" />

<path
   fill="#F9CB1A"
   d="m 6.8,20.175 c -0.1,1.3 0.2,2.5 0.4,3.8 0.6,4.1 1.6,8 3.1,11.9 1.1,3.1 2.6,6 5,8.4 0.7,0.7 0.7,0.7 1.2,-0.1 0.2,-0.4 0.5,-0.7 0.7,-1.1 0.9,-1.1 1.8,-2.2 2.8,-3.3 0.2,-0.1 0.3,-0.3 0.5,-0.4 1.5,-1.5 3.2,-2.9 5.1,-4 2.1,-1.2 4.5,-2 6.9,-2.4 2,-0.3 4,-0.4 6.1,0.2 -1,1.6 -1.9,3.1 -2.8,4.6 -2.1,3.5 -3.9,7.1 -5.1,11 -0.7,1.8 -1.2,3.6 -1.5,5.5 -0.5,2.1 -0.8,4.2 -1,6.3 -0.1,1.5 -0.2,2.9 -0.3,4.4 0,0.3 0,0.6 -0.4,0.5 -0.9,-0.2 -1.8,-0.5 -2.7,-0.5 -3.7,-1.1 -7.1,-2.8 -10.1,-5.1 -3.1,-2.4 -5.7,-5.2 -7.7,-8.5 -1.7,-2.8 -3,-5.8 -3.8,-9 -0.5,-2 -0.7,-4 -0.9,-6 -0.3,-2.6 0,-5.2 0.1,-7.7 0.2,-3.1 0.8,-6.1 1.6,-9.1 0.5,-2 1.2,-3.9 1.9,-5.8 0.1,-0.2 0.2,-0.4 0.6,-0.7 0,1.9 0,3.6 0,5.3 -0.1,0.6 0,1.2 0.3,1.8 z"
   id="path20"
   style="fill:#ffd500;fill-opacity:1" />



<path
   d="M 71.011371,45.610348 V 23.829917 h 8.961092 q 2.893686,0 4.947269,0.933447 2.084698,0.933447 3.204835,2.675882 1.120136,1.742434 1.120136,4.138282 0,2.395847 -1.120136,4.138281 -1.120137,1.742435 -3.204835,2.675882 -2.053583,0.933447 -4.947269,0.933447 h -6.720819 l 1.804664,-1.898009 v 8.183219 z m 4.044937,-7.74761 -1.804664,-1.960239 h 6.534129 q 2.675882,0 4.013823,-1.120137 1.369055,-1.151251 1.369055,-3.204834 0,-2.084699 -1.369055,-3.204835 -1.337941,-1.120137 -4.013823,-1.120137 h -6.534129 l 1.804664,-1.991353 z m 16.090504,7.74761 V 28.994991 h 3.702673 v 4.57389 L 94.413877,32.23094 q 0.746757,-1.680204 2.333617,-2.551421 1.617975,-0.871218 4.013826,-0.871218 v 3.702674 q -0.24892,-0.06223 -0.46673,-0.06223 -0.2178,-0.03111 -0.435606,-0.03111 -2.209158,0 -3.515983,1.306826 -1.306826,1.275711 -1.306826,3.827132 v 8.05876 z m 18.597738,0.217804 q -2.55142,0 -4.54278,-1.089021 -1.99135,-1.120137 -3.1426,-3.049261 -1.15125,-1.929124 -1.15125,-4.387201 0,-2.489192 1.15125,-4.387201 1.15125,-1.929124 3.1426,-3.018145 1.99136,-1.089022 4.54278,-1.089022 2.58254,0 4.57389,1.089022 2.02247,1.089021 3.1426,2.98703 1.15126,1.898009 1.15126,4.418316 0,2.458077 -1.15126,4.387201 -1.12013,1.929124 -3.1426,3.049261 -1.99135,1.089021 -4.57389,1.089021 z m 0,-3.329294 q 1.43129,0 2.55142,-0.622298 1.12014,-0.622298 1.74244,-1.804665 0.65341,-1.182366 0.65341,-2.769226 0,-1.617975 -0.65341,-2.769226 -0.6223,-1.182366 -1.74244,-1.804664 -1.12013,-0.622298 -2.52031,-0.622298 -1.43128,0 -2.55142,0.622298 -1.08902,0.622298 -1.74243,1.804664 -0.65341,1.151251 -0.65341,2.769226 0,1.58686 0.65341,2.769226 0.65341,1.182367 1.74243,1.804665 1.12014,0.622298 2.52031,0.622298 z m 11.5105,3.11149 V 28.061544 q 0,-2.613652 1.52463,-4.169397 1.55575,-1.58686 4.41832,-1.58686 1.02679,0 1.92912,0.217805 0.93345,0.217804 1.55575,0.684527 l -1.05791,2.924801 q -0.43561,-0.342264 -0.99568,-0.497838 -0.56007,-0.18669 -1.15125,-0.18669 -1.21348,0 -1.83578,0.684528 -0.6223,0.653413 -0.6223,1.991354 v 1.866894 l 0.12446,1.742434 V 45.610348 Z M 118.51694,32.23094 v -3.11149 h 11.0769 v 3.11149 z m 13.81501,13.379408 V 28.994991 h 3.88937 v 16.615357 z m 1.96024,-19.353468 q -1.08902,0 -1.80466,-0.684528 -0.68453,-0.684528 -0.68453,-1.64909 0,-0.995677 0.68453,-1.64909 0.71564,-0.684528 1.80466,-0.684528 1.08903,0 1.77355,0.653413 0.71565,0.622298 0.71565,1.58686 0,1.026792 -0.68453,1.742435 -0.68453,0.684528 -1.80467,0.684528 z m 8.92595,19.571272 q -2.0847,0 -4.01382,-0.528953 -1.89801,-0.560068 -3.01815,-1.337941 l 1.49352,-2.955916 q 1.12014,0.715643 2.67588,1.182367 1.55575,0.466723 3.11149,0.466723 1.83578,0 2.64477,-0.497838 0.8401,-0.497839 0.8401,-1.337941 0,-0.684528 -0.56007,-1.026792 -0.56007,-0.373378 -1.4624,-0.560068 -0.90233,-0.186689 -2.02247,-0.342264 -1.08902,-0.155574 -2.20916,-0.404493 -1.08902,-0.280035 -1.99135,-0.777873 -0.90233,-0.528953 -1.4624,-1.400171 -0.56007,-0.871217 -0.56007,-2.302502 0,-1.58686 0.90233,-2.738111 0.90234,-1.182367 2.52031,-1.804665 1.64909,-0.653413 3.88936,-0.653413 1.68021,0 3.39153,0.373379 1.71132,0.373379 2.83145,1.057907 l -1.49351,2.955915 q -1.18237,-0.715642 -2.39585,-0.964562 -1.18237,-0.280034 -2.36473,-0.280034 -1.77355,0 -2.64477,0.528954 -0.8401,0.528953 -0.8401,1.33794 0,0.746758 0.56007,1.120137 0.56007,0.373379 1.4624,0.591183 0.90233,0.217804 1.99135,0.373379 1.12014,0.124459 2.20916,0.404493 1.08902,0.280035 1.99135,0.777873 0.93345,0.466723 1.49352,1.337941 0.56007,0.871217 0.56007,2.271387 0,1.555745 -0.93345,2.706997 -0.90233,1.151251 -2.58254,1.804664 -1.6802,0.622298 -4.01382,0.622298 z m 14.40416,0 q -2.0847,0 -4.01382,-0.528953 -1.89801,-0.560068 -3.01815,-1.337941 l 1.49352,-2.955916 q 1.12013,0.715643 2.67588,1.182367 1.55574,0.466723 3.11149,0.466723 1.83578,0 2.64477,-0.497838 0.8401,-0.497839 0.8401,-1.337941 0,-0.684528 -0.56007,-1.026792 -0.56007,-0.373378 -1.4624,-0.560068 -0.90233,-0.186689 -2.02247,-0.342264 -1.08902,-0.155574 -2.20916,-0.404493 -1.08902,-0.280035 -1.99135,-0.777873 -0.90233,-0.528953 -1.4624,-1.400171 -0.56007,-0.871217 -0.56007,-2.302502 0,-1.58686 0.90233,-2.738111 0.90234,-1.182367 2.52031,-1.804665 1.64909,-0.653413 3.88936,-0.653413 1.68021,0 3.39153,0.373379 1.71132,0.373379 2.83145,1.057907 l -1.49351,2.955915 q -1.18237,-0.715642 -2.39585,-0.964562 -1.18237,-0.280034 -2.36473,-0.280034 -1.77355,0 -2.64477,0.528954 -0.8401,0.528953 -0.8401,1.33794 0,0.746758 0.56007,1.120137 0.56007,0.373379 1.4624,0.591183 0.90233,0.217804 1.99135,0.373379 1.12014,0.124459 2.20916,0.404493 1.08902,0.280035 1.99135,0.777873 0.93345,0.466723 1.49352,1.337941 0.56007,0.871217 0.56007,2.271387 0,1.555745 -0.93345,2.706997 -0.90233,1.151251 -2.58254,1.804664 -1.6802,0.622298 -4.01382,0.622298 z m 9.27019,-0.217804 V 28.994991 h 3.88937 v 16.615357 z m 1.96024,-19.353468 q -1.08902,0 -1.80466,-0.684528 -0.68453,-0.684528 -0.68453,-1.64909 0,-0.995677 0.68453,-1.64909 0.71564,-0.684528 1.80466,-0.684528 1.08902,0 1.77355,0.653413 0.71564,0.622298 0.71564,1.58686 0,1.026792 -0.68452,1.742435 -0.68453,0.684528 -1.80467,0.684528 z m 12.87953,19.571272 q -2.55142,0 -4.54277,-1.089021 -1.99136,-1.120137 -3.14261,-3.049261 -1.15125,-1.929124 -1.15125,-4.387201 0,-2.489192 1.15125,-4.387201 1.15125,-1.929124 3.14261,-3.018145 1.99135,-1.089022 4.54277,-1.089022 2.58254,0 4.57389,1.089022 2.02247,1.089021 3.14261,2.98703 1.15125,1.898009 1.15125,4.418316 0,2.458077 -1.15125,4.387201 -1.12014,1.929124 -3.14261,3.049261 -1.99135,1.089021 -4.57389,1.089021 z m 0,-3.329294 q 1.43129,0 2.55142,-0.622298 1.12014,-0.622298 1.74244,-1.804665 0.65341,-1.182366 0.65341,-2.769226 0,-1.617975 -0.65341,-2.769226 -0.6223,-1.182366 -1.74244,-1.804664 -1.12013,-0.622298 -2.5203,-0.622298 -1.43129,0 -2.55142,0.622298 -1.08903,0.622298 -1.74244,1.804664 -0.65341,1.151251 -0.65341,2.769226 0,1.58686 0.65341,2.769226 0.65341,1.182367 1.74244,1.804665 1.12013,0.622298 2.5203,0.622298 z m 20.40936,-13.690557 q 1.99135,0 3.5471,0.777873 1.58686,0.777872 2.48919,2.395847 0.90233,1.58686 0.90233,4.107167 v 9.52116 h -3.88936 v -9.023321 q 0,-2.209158 -1.05791,-3.29818 -1.02679,-1.089021 -2.89368,-1.089021 -1.36906,0 -2.42696,0.560068 -1.05791,0.560068 -1.64909,1.680204 -0.56007,1.089022 -0.56007,2.769227 v 8.401023 h -3.88936 V 28.994991 h 3.70267 v 4.480546 l -0.65341,-1.369056 q 0.87121,-1.58686 2.5203,-2.426962 1.68021,-0.871218 3.85825,-0.871218 z m 20.50268,16.802047 v -3.36041 l -0.21781,-0.715642 V 35.65358 q 0,-1.71132 -1.02679,-2.644767 -1.02679,-0.964562 -3.11149,-0.964562 -1.40017,0 -2.76923,0.435609 -1.33794,0.435608 -2.27138,1.213481 l -1.52463,-2.831456 q 1.33794,-1.026792 3.17372,-1.52463 1.86689,-0.528954 3.85824,-0.528954 3.60933,0 5.56957,1.742435 1.99135,1.711319 1.99135,5.320648 v 9.738964 z m -5.22731,0.217804 q -1.86689,0 -3.26706,-0.622298 -1.40017,-0.653413 -2.17805,-1.773549 -0.74675,-1.151252 -0.74675,-2.582537 0,-1.400171 0.65341,-2.520307 0.68453,-1.120136 2.20916,-1.773549 1.52463,-0.653413 4.04494,-0.653413 h 4.8228 v 2.582537 h -4.54277 q -1.99135,0 -2.67588,0.653412 -0.68453,0.622298 -0.68453,1.555745 0,1.057907 0.8401,1.680205 0.8401,0.622298 2.33362,0.622298 1.43129,0 2.55142,-0.653413 1.15125,-0.653413 1.64909,-1.929124 l 0.65341,2.333618 q -0.56006,1.4624 -2.02246,2.271388 -1.43129,0.808987 -3.64045,0.808987 z m 12.25726,-0.217804 V 22.523092 h 3.88936 v 23.087256 z m 7.37219,0 V 28.994991 h 3.88936 v 16.615357 z m 1.96024,-19.353468 q -1.08902,0 -1.80467,-0.684528 -0.68452,-0.684528 -0.68452,-1.64909 0,-0.995677 0.68452,-1.64909 0.71565,-0.684528 1.80467,-0.684528 1.08902,0 1.77355,0.653413 0.71564,0.622298 0.71564,1.58686 0,1.026792 -0.68453,1.742435 -0.68452,0.684528 -1.80466,0.684528 z m 4.0429,19.353468 v -2.458077 l 10.2368,-12.383731 0.71564,1.337941 h -10.76575 v -3.11149 h 13.87724 v 2.458077 l -10.2368,12.38373 -0.77787,-1.33794 h 11.29471 v 3.11149 z m 26.53898,0 v -3.36041 l -0.21781,-0.715642 V 35.65358 q 0,-1.71132 -1.02679,-2.644767 -1.02679,-0.964562 -3.11149,-0.964562 -1.40017,0 -2.76923,0.435609 -1.33794,0.435608 -2.27138,1.213481 l -1.52463,-2.831456 q 1.33794,-1.026792 3.17372,-1.52463 1.86689,-0.528954 3.85824,-0.528954 3.60933,0 5.56957,1.742435 1.99135,1.711319 1.99135,5.320648 v 9.738964 z m -5.22731,0.217804 q -1.86689,0 -3.26706,-0.622298 -1.40017,-0.653413 -2.17805,-1.773549 -0.74675,-1.151252 -0.74675,-2.582537 0,-1.400171 0.65341,-2.520307 0.68453,-1.120136 2.20916,-1.773549 1.52463,-0.653413 4.04493,-0.653413 h 4.82281 v 2.582537 h -4.54277 q -1.99135,0 -2.67588,0.653412 -0.68453,0.622298 -0.68453,1.555745 0,1.057907 0.8401,1.680205 0.8401,0.622298 2.33362,0.622298 1.43128,0 2.55142,-0.653413 1.15125,-0.653413 1.64909,-1.929124 l 0.65341,2.333618 q -0.56006,1.4624 -2.02246,2.271388 -1.43129,0.808987 -3.64045,0.808987 z"
   id="text24"
   style="font-weight:600;font-size:31.1149px;font-family:Montserrat;-inkscape-font-specification:'Montserrat Semi-Bold';letter-spacing:-1.62px;fill:#072ac8;stroke:url(#linearGradient28);stroke-linecap:round;stroke-linejoin:round;paint-order:stroke fill markers;fill-opacity:1"
   aria-label="Profissionaliza" /><circle
   style="fill:#ffd500;stroke:none;stroke-width:2.53385;stroke-linecap:round;stroke-linejoin:round;stroke-dasharray:none;stroke-opacity:1;paint-order:stroke fill markers;fill-opacity:1"
   id="path36"
   cx="17.4375"
   cy="28.9375"
   r="5.9375" /><circle
   style="fill:#ffd500;stroke:none;stroke-width:1.89372;stroke-linecap:round;stroke-linejoin:round;stroke-dasharray:none;stroke-opacity:1;paint-order:stroke fill markers;fill-opacity:1"
   id="path36-1"
   cx="29.6875"
   cy="16.1875"
   r="4.4375" /><circle
   style="fill:#ffd500;stroke:none;stroke-width:1.38695;stroke-linecap:round;stroke-linejoin:round;stroke-dasharray:none;stroke-opacity:1;paint-order:stroke fill markers;fill-opacity:1"
   id="path36-1-1"
   cx="45.25"
   cy="14.5"
   r="3.25" /></svg>
